# Max2Obj Version 4.0 Mar 10th, 2001
#
# object 11_-_Default to come ...
#
v  0.343650 1.959659 -0.114743
v  0.341714 2.010278 -0.227958
v  0.297706 2.053572 -0.335533
v  0.216934 2.084320 -0.424494
v  0.109141 2.098813 -0.484111
v  -0.012673 2.095303 -0.507192
v  -0.133814 2.074214 -0.490954
v  -0.239671 2.038089 -0.437356
v  -0.317476 1.991285 -0.352862
v  -0.357846 1.939447 -0.247663
v  -0.355910 1.888829 -0.134448
v  -0.311902 1.845534 -0.026873
v  -0.231130 1.814786 0.062088
v  -0.123337 1.800293 0.121704
v  -0.001523 1.803803 0.144786
v  0.119618 1.824892 0.128548
v  0.225475 1.861017 0.074950
v  0.303281 1.907821 -0.009544
v  -0.007098 1.949553 -0.181203
# 19 vertices

vt  0.999501 0.500000 0.500000
vt  0.969377 0.673475 0.500000
vt  0.882640 0.826026 0.500000
vt  0.749750 0.939253 0.500000
vt  0.586737 0.999500 0.500000
vt  0.413263 0.999500 0.500000
vt  0.250250 0.939253 0.500000
vt  0.117361 0.826026 0.500000
vt  0.030623 0.673475 0.500000
vt  0.000500 0.500000 0.500000
vt  0.030623 0.326526 0.500000
vt  0.117360 0.173974 0.500000
vt  0.250250 0.060747 0.500000
vt  0.413262 0.000500 0.500000
vt  0.586737 0.000499 0.500000
vt  0.749750 0.060746 0.500000
vt  0.882639 0.173974 0.500000
vt  0.969377 0.326525 0.500000
vt  0.500000 0.500000 0.500000
# 19 texture vertices

vn  -0.000645 0.005664 0.002544
vn  -0.000645 0.005664 0.002544
vn  -0.000645 0.005664 0.002544
vn  -0.000645 0.005664 0.002544
vn  -0.000645 0.005664 0.002544
vn  -0.000645 0.005664 0.002544
vn  -0.000645 0.005664 0.002544
vn  -0.000645 0.005664 0.002544
vn  -0.000645 0.005664 0.002544
vn  -0.000645 0.005664 0.002544
vn  -0.000645 0.005664 0.002544
vn  -0.000645 0.005664 0.002544
vn  -0.000645 0.005664 0.002544
vn  -0.000645 0.005664 0.002544
vn  -0.000645 0.005664 0.002544
vn  -0.000645 0.005664 0.002544
vn  -0.000645 0.005664 0.002544
vn  -0.000645 0.005664 0.002544
vn  -0.000645 0.005664 0.002544
# 19 vertex normals

g 11_-_Default
s 1
f 1/1/1 2/2/2 19/19/19
f 2/2/2 3/3/3 19/19/19
f 3/3/3 4/4/4 19/19/19
f 4/4/4 5/5/5 19/19/19
f 5/5/5 6/6/6 19/19/19
f 6/6/6 7/7/7 19/19/19
f 7/7/7 8/8/8 19/19/19
f 8/8/8 9/9/9 19/19/19
f 9/9/9 10/10/10 19/19/19
f 10/10/10 11/11/11 19/19/19
f 11/11/11 12/12/12 19/19/19
f 12/12/12 13/13/13 19/19/19
f 13/13/13 14/14/14 19/19/19
f 14/14/14 15/15/15 19/19/19
f 15/15/15 16/16/16 19/19/19
f 16/16/16 17/17/17 19/19/19
f 17/17/17 18/18/18 19/19/19
f 18/18/18 1/1/1 19/19/19
# 18 faces

g
