# Max2Obj Version 4.0 Mar 10th, 2001
#
# object Material__83 to come ...
#
v  0.959646 -0.752960 1.347429
v  0.878255 -0.712715 0.895871
v  0.643898 -0.596832 0.498777
v  0.284842 -0.419290 0.204043
v  -0.155605 -0.201502 0.047218
v  -0.624319 0.030263 0.047219
v  -1.064766 0.248050 0.204043
v  -1.423822 0.425592 0.498777
v  -1.658179 0.541475 0.895871
v  -1.739570 0.581720 1.347429
v  -1.658179 0.541475 1.798987
v  -1.423822 0.425593 2.196081
v  -1.064766 0.248051 2.490815
v  -0.624319 0.030263 2.647640
v  -0.155605 -0.201502 2.647640
v  0.284841 -0.419290 2.490815
v  0.643897 -0.596832 2.196082
v  0.878255 -0.712715 1.798988
v  3.197348 5.579081 1.347429
v  3.175794 5.590261 1.209449
v  3.113730 5.622450 1.088111
v  3.018644 5.671770 0.998050
v  2.902002 5.732268 0.950130
v  2.777875 5.796649 0.950130
v  2.661234 5.857148 0.998050
v  2.566147 5.906466 1.088111
v  2.504084 5.938657 1.209449
v  2.482529 5.949837 1.347429
v  2.504084 5.938657 1.485409
v  2.566147 5.906466 1.606747
v  2.661234 5.857148 1.696808
v  2.777875 5.796649 1.744728
v  2.902002 5.732268 1.744728
v  3.018643 5.671770 1.696808
v  3.113730 5.622451 1.606748
v  3.175794 5.590261 1.485410
# 36 vertices

vt  0.715259 0.014151 1.000000
vt  0.769243 0.014151 1.000000
vt  0.823226 0.014151 1.000000
vt  0.877209 0.014151 1.000000
vt  0.931192 0.014151 1.000000
vt  0.013478 0.014151 1.000000
vt  0.067461 0.014151 1.000000
vt  0.121444 0.014151 1.000000
vt  0.175427 0.014151 1.000000
vt  0.229410 0.014151 1.000000
vt  0.283394 0.014151 1.000000
vt  0.337377 0.014151 1.000000
vt  0.391360 0.014151 1.000000
vt  0.445343 0.014151 1.000000
vt  0.499327 0.014151 1.000000
vt  0.553310 0.014151 1.000000
vt  0.607293 0.014151 1.000000
vt  0.661276 0.014151 1.000000
vt  0.715259 0.985849 1.000000
vt  0.769243 0.985849 1.000000
vt  0.823226 0.985849 1.000000
vt  0.877209 0.985849 1.000000
vt  0.931192 0.985849 1.000000
vt  0.013478 0.985849 1.000000
vt  0.067461 0.985849 1.000000
vt  0.121444 0.985849 1.000000
vt  0.175427 0.985849 1.000000
vt  0.229410 0.985849 1.000000
vt  0.283394 0.985849 1.000000
vt  0.337377 0.985849 1.000000
vt  0.391360 0.985849 1.000000
vt  0.445343 0.985849 1.000000
vt  0.499327 0.985849 1.000000
vt  0.553310 0.985849 1.000000
vt  0.607293 0.985849 1.000000
vt  0.661276 0.985849 1.000000
vt  0.985176 0.014151 1.000000
vt  0.985176 0.985849 1.000000
# 38 texture vertices

vn  0.782623 -0.276727 -0.048569
vn  0.714737 -0.243622 -0.348867
vn  0.560703 -0.167211 -0.592007
vn  0.353984 -0.061593 -0.751380
vn  0.124698 0.060240 -0.821542
vn  -0.105851 0.188192 -0.804599
vn  -0.320605 0.312399 -0.702143
vn  -0.500216 0.419795 -0.515791
vn  -0.619407 0.492642 -0.255586
vn  -0.652574 0.513089 0.048170
vn  -0.589641 0.474299 0.345346
vn  -0.445173 0.386561 0.587529
vn  -0.247494 0.269625 0.748131
vn  -0.022971 0.141565 0.820692
vn  0.208604 0.015007 0.806393
vn  0.429788 -0.100798 0.706067
vn  0.618988 -0.196317 0.520399
vn  0.746736 -0.259230 0.258604
vn  0.782119 -0.276897 0.055276
vn  0.751262 -0.261311 -0.242862
vn  0.629219 -0.200815 -0.506163
vn  0.438925 -0.104623 -0.699837
vn  0.209489 0.015274 -0.806158
vn  -0.031837 0.146658 -0.819496
vn  -0.260858 0.276776 -0.740916
vn  -0.455040 0.391446 -0.576590
vn  -0.592330 0.475050 -0.339643
vn  -0.652456 0.512609 -0.054499
vn  -0.623299 0.495168 0.240755
vn  -0.508765 0.425561 0.502480
vn  -0.327718 0.317426 0.696561
vn  -0.104951 0.188359 0.804678
vn  0.134937 0.054730 0.820304
vn  0.368246 -0.069726 0.743746
vn  0.570783 -0.173375 0.580442
vn  0.716958 -0.245635 0.342823
# 36 vertex normals

g Material__83
s 8
f 20/20/20 19/19/19 1/1/1 2/2/2
f 21/21/21 20/20/20 2/2/2 3/3/3
f 22/22/22 21/21/21 3/3/3 4/4/4
f 23/23/23 22/22/22 4/4/4 5/5/5
f 24/38/24 23/23/23 5/5/5 6/37/6
f 25/25/25 24/24/24 6/6/6 7/7/7
f 26/26/26 25/25/25 7/7/7 8/8/8
f 27/27/27 26/26/26 8/8/8 9/9/9
f 28/28/28 27/27/27 9/9/9 10/10/10
f 29/29/29 28/28/28 10/10/10 11/11/11
f 30/30/30 29/29/29 11/11/11 12/12/12
f 31/31/31 30/30/30 12/12/12 13/13/13
f 32/32/32 31/31/31 13/13/13 14/14/14
f 33/33/33 32/32/32 14/14/14 15/15/15
f 34/34/34 33/33/33 15/15/15 16/16/16
f 35/35/35 34/34/34 16/16/16 17/17/17
f 36/36/36 35/35/35 17/17/17 18/18/18
f 19/19/19 36/36/36 18/18/18 1/1/1
# 18 faces

g
