# Max2Obj Version 4.0 Mar 10th, 2001
#
# object 11_-_Default to come ...
#
v  0.497560 1.270612 0.073715
v  0.466021 1.336137 -0.092721
v  0.375206 1.393759 -0.239084
v  0.236069 1.436527 -0.347718
v  0.065392 1.459284 -0.405521
v  -0.116238 1.459284 -0.405520
v  -0.286915 1.436527 -0.347718
v  -0.426052 1.393759 -0.239084
v  -0.516867 1.336137 -0.092721
v  -0.548406 1.270612 0.073715
v  -0.516867 1.205087 0.240152
v  -0.426052 1.147465 0.386514
v  -0.286915 1.104696 0.495148
v  -0.116238 1.081940 0.552951
v  0.065392 1.081940 0.552951
v  0.236068 1.104696 0.495149
v  0.375205 1.147465 0.386515
v  0.466021 1.205086 0.240153
v  -0.025423 1.270612 0.073715
# 19 vertices

vt  0.999501 0.500000 0.500000
vt  0.969377 0.673475 0.500000
vt  0.882640 0.826026 0.500000
vt  0.749750 0.939253 0.500000
vt  0.586737 0.999500 0.500000
vt  0.413263 0.999500 0.500000
vt  0.250250 0.939253 0.500000
vt  0.117361 0.826026 0.500000
vt  0.030623 0.673475 0.500000
vt  0.000500 0.500000 0.500000
vt  0.030623 0.326526 0.500000
vt  0.117360 0.173974 0.500000
vt  0.250250 0.060747 0.500000
vt  0.413262 0.000500 0.500000
vt  0.586737 0.000499 0.500000
vt  0.749750 0.060746 0.500000
vt  0.882639 0.173974 0.500000
vt  0.969377 0.326525 0.500000
vt  0.500000 0.500000 0.500000
# 19 texture vertices

vn  0.000000 0.008506 0.003349
vn  0.000000 0.008506 0.003349
vn  0.000000 0.008506 0.003349
vn  0.000000 0.008506 0.003349
vn  0.000000 0.008506 0.003349
vn  0.000000 0.008506 0.003349
vn  0.000000 0.008506 0.003349
vn  0.000000 0.008506 0.003349
vn  0.000000 0.008506 0.003349
vn  0.000000 0.008506 0.003349
vn  0.000000 0.008506 0.003349
vn  0.000000 0.008506 0.003349
vn  0.000000 0.008506 0.003349
vn  0.000000 0.008506 0.003349
vn  0.000000 0.008506 0.003349
vn  0.000000 0.008506 0.003349
vn  0.000000 0.008506 0.003349
vn  0.000000 0.008506 0.003349
vn  0.000000 0.008506 0.003349
# 19 vertex normals

g 11_-_Default
s 1
f 1/1/1 2/2/2 19/19/19
f 2/2/2 3/3/3 19/19/19
f 3/3/3 4/4/4 19/19/19
f 4/4/4 5/5/5 19/19/19
f 5/5/5 6/6/6 19/19/19
f 6/6/6 7/7/7 19/19/19
f 7/7/7 8/8/8 19/19/19
f 8/8/8 9/9/9 19/19/19
f 9/9/9 10/10/10 19/19/19
f 10/10/10 11/11/11 19/19/19
f 11/11/11 12/12/12 19/19/19
f 12/12/12 13/13/13 19/19/19
f 13/13/13 14/14/14 19/19/19
f 14/14/14 15/15/15 19/19/19
f 15/15/15 16/16/16 19/19/19
f 16/16/16 17/17/17 19/19/19
f 17/17/17 18/18/18 19/19/19
f 18/18/18 1/1/1 19/19/19
# 18 faces

g
