# Max2Obj Version 4.0 Mar 10th, 2001
#
# object Material__76 to come ...
#
v  -0.525205 1.206791 0.207969
v  -0.602069 1.111571 0.191505
v  -0.554722 1.064980 0.334049
v  -0.483791 1.166040 0.332648
v  -0.470190 1.022727 0.459747
v  -0.409853 1.129082 0.442591
v  -0.354231 0.987691 0.560033
v  -0.308429 1.098439 0.530308
v  -0.214750 0.962262 0.628074
v  -0.186429 1.076196 0.589822
v  -0.061252 0.948171 0.659232
v  -0.052170 1.063871 0.617074
v  0.095803 0.946378 0.651383
v  0.085202 1.062302 0.610210
v  0.245712 0.957005 0.605064
v  0.216321 1.071598 0.569696
v  0.378259 0.979330 0.523429
v  0.332256 1.091124 0.498293
v  0.484411 1.011829 0.412044
v  0.425102 1.119551 0.400867
v  0.556932 1.052289 0.278497
v  0.488535 1.154940 0.284059
v  -0.686127 0.981537 0.165137
v  -0.632347 0.928616 0.327047
v  -0.536329 0.880622 0.469824
v  -0.404615 0.840827 0.583736
v  -0.246184 0.811942 0.661022
v  -0.071829 0.795937 0.696413
v  0.106565 0.793900 0.687499
v  0.276842 0.805971 0.634886
v  0.427397 0.831329 0.542159
v  0.547971 0.868246 0.415640
v  0.630347 0.914201 0.263948
v  -0.698933 0.831815 0.119176
v  -0.644456 0.778208 0.283185
v  -0.547193 0.729593 0.427811
v  -0.413774 0.689282 0.543199
v  -0.253290 0.660023 0.621486
v  -0.076677 0.643810 0.657335
v  0.104028 0.641747 0.648305
v  0.276510 0.653975 0.595011
v  0.429017 0.679661 0.501084
v  0.551152 0.717054 0.372925
v  0.634595 0.763607 0.219269
v  -0.569398 1.247331 0.401659
v  -0.618456 1.295604 0.253966
v  -0.481810 1.203551 0.531899
v  -0.361662 1.167251 0.635810
v  -0.217142 1.140902 0.706309
v  -0.058098 1.126302 0.738593
v  0.104633 1.124444 0.730461
v  0.259958 1.135456 0.682468
v  0.397294 1.158587 0.597884
v  0.507281 1.192259 0.482473
v  0.582423 1.234181 0.344101
v  -0.535760 1.286872 0.398218
v  -0.581983 1.332358 0.259056
v  -0.453232 1.245622 0.520933
v  -0.340026 1.211418 0.618841
v  -0.203854 1.186592 0.685267
v  -0.053998 1.172835 0.715685
v  0.099331 1.171085 0.708023
v  0.245683 1.181460 0.662803
v  0.375084 1.203255 0.583106
v  0.478717 1.234983 0.474362
v  0.549518 1.274483 0.343985
# 66 vertices

vt  0.026038 0.637209 0.000000
vt  0.020604 0.443132 0.000000
vt  0.117862 0.435272 0.000000
vt  0.121166 0.623282 0.000000
vt  0.214646 0.428424 0.000000
vt  0.217460 0.617369 0.000000
vt  0.310833 0.422768 0.000000
vt  0.313004 0.615222 0.000000
vt  0.407172 0.418590 0.000000
vt  0.407549 0.607037 0.000000
vt  0.503648 0.416728 0.000000
vt  0.502868 0.608734 0.000000
vt  0.599499 0.417507 0.000000
vt  0.598197 0.606514 0.000000
vt  0.695356 0.420328 0.000000
vt  0.693599 0.607433 0.000000
vt  0.791192 0.423385 0.000000
vt  0.789448 0.606041 0.000000
vt  0.887199 0.428317 0.000000
vt  0.885876 0.619774 0.000000
vt  0.984302 0.434210 0.000000
vt  0.980994 0.626311 0.000000
vt  0.015854 0.240752 0.000000
vt  0.114124 0.232270 0.000000
vt  0.211642 0.228354 0.000000
vt  0.308806 0.221378 0.000000
vt  0.405954 0.219443 0.000000
vt  0.502968 0.219450 0.000000
vt  0.599714 0.217958 0.000000
vt  0.696461 0.218821 0.000000
vt  0.793135 0.222790 0.000000
vt  0.890162 0.227738 0.000000
vt  0.987889 0.234326 0.000000
vt  0.012116 0.048136 0.000000
vt  0.110914 0.041310 0.000000
vt  0.209267 0.037070 0.000000
vt  0.307114 0.031795 0.000000
vt  0.404891 0.029189 0.000000
vt  0.502567 0.028412 0.000000
vt  0.600023 0.028084 0.000000
vt  0.697589 0.029602 0.000000
vt  0.795238 0.033022 0.000000
vt  0.892956 0.036689 0.000000
vt  0.991181 0.042750 0.000000
vt  0.123940 0.780013 0.000000
vt  0.029195 0.786894 0.000000
vt  0.218643 0.766042 0.000000
vt  0.313654 0.765920 0.000000
vt  0.408129 0.762089 0.000000
vt  0.502399 0.755800 0.000000
vt  0.596986 0.756926 0.000000
vt  0.692048 0.761684 0.000000
vt  0.787053 0.764109 0.000000
vt  0.881911 0.769146 0.000000
vt  0.976700 0.779237 0.000000
vt  0.127807 0.923862 0.000000
vt  0.033806 0.936127 0.000000
vt  0.221683 0.917490 0.000000
vt  0.315705 0.910245 0.000000
vt  0.409639 0.907656 0.000000
vt  0.503094 0.905257 0.000000
vt  0.596536 0.907423 0.000000
vt  0.691182 0.908001 0.000000
vt  0.785580 0.913358 0.000000
vt  0.879474 0.916202 0.000000
vt  0.972974 0.926460 0.000000
# 66 texture vertices

vn  -0.009132 -0.001254 0.002623
vn  -0.007501 0.004468 0.003952
vn  -0.007003 0.004341 0.004896
vn  -0.008492 -0.001742 0.004086
vn  -0.005892 0.003788 0.006541
vn  -0.007060 -0.002396 0.006022
vn  -0.004371 0.003329 0.007852
vn  -0.005147 -0.002929 0.007535
vn  -0.002542 0.002997 0.008741
vn  -0.002885 -0.003304 0.008521
vn  -0.000530 0.002813 0.009146
vn  -0.000427 -0.003496 0.008913
vn  0.001528 0.002791 0.009040
vn  0.002059 -0.003491 0.008685
vn  0.003491 0.002931 0.008430
vn  0.004403 -0.003290 0.007851
vn  0.005226 0.003225 0.007358
vn  0.006446 -0.002907 0.006469
vn  0.006615 0.003651 0.005896
vn  0.008049 -0.002367 0.004633
vn  0.007076 0.004022 0.005061
vn  0.008465 -0.002154 0.003944
vn  -0.008867 0.001336 0.003382
vn  -0.008199 0.001745 0.004645
vn  -0.006909 0.001105 0.006550
vn  -0.005142 0.000574 0.008067
vn  -0.003020 0.000190 0.009093
vn  -0.000687 -0.000021 0.009559
vn  0.001697 -0.000046 0.009432
vn  0.003971 0.000118 0.008721
vn  0.005980 0.000459 0.007475
vn  0.007586 0.000954 0.005779
vn  0.007977 0.001975 0.004930
vn  -0.009107 -0.000136 0.002981
vn  -0.008822 -0.000376 0.003725
vn  -0.007573 -0.001062 0.005777
vn  -0.005807 -0.001641 0.007446
vn  -0.003644 -0.002072 0.008618
vn  -0.001232 -0.002328 0.009215
vn  0.001265 -0.002390 0.009194
vn  0.003677 -0.002253 0.008559
vn  0.005839 -0.001928 0.007351
vn  0.007604 -0.001437 0.005653
vn  0.008501 -0.001037 0.004302
vn  -0.008681 -0.001132 0.003899
vn  -0.008647 0.002100 0.003559
vn  -0.007335 -0.001804 0.005898
vn  -0.005490 -0.002361 0.007492
vn  -0.003270 -0.002765 0.008574
vn  -0.000828 -0.002989 0.009068
vn  0.001670 -0.003017 0.008942
vn  0.004054 -0.002847 0.008204
vn  0.006162 -0.002492 0.006904
vn  0.007850 -0.001975 0.005131
vn  0.007967 -0.004408 0.002991
vn  -0.006210 0.005682 0.004583
vn  -0.006441 0.005831 0.004045
vn  -0.005308 0.005186 0.006065
vn  -0.004032 0.004768 0.007270
vn  -0.002470 0.004457 0.008117
vn  -0.000727 0.004272 0.008548
vn  0.001076 0.004228 0.008533
vn  0.002818 0.004326 0.008074
vn  0.004380 0.004561 0.007202
vn  0.005655 0.004915 0.005975
vn  0.006325 0.005178 0.005003
# 66 vertex normals

g Material__76
s 2
f 1/1/1 2/2/2 3/3/3 4/4/4
f 4/4/4 3/3/3 5/5/5 6/6/6
f 6/6/6 5/5/5 7/7/7 8/8/8
f 8/8/8 7/7/7 9/9/9 10/10/10
f 10/10/10 9/9/9 11/11/11 12/12/12
f 12/12/12 11/11/11 13/13/13 14/14/14
f 14/14/14 13/13/13 15/15/15 16/16/16
f 16/16/16 15/15/15 17/17/17 18/18/18
f 18/18/18 17/17/17 19/19/19 20/20/20
f 20/20/20 19/19/19 21/21/21 22/22/22
f 2/2/2 23/23/23 24/24/24 3/3/3
f 3/3/3 24/24/24 25/25/25 5/5/5
f 5/5/5 25/25/25 26/26/26 7/7/7
f 7/7/7 26/26/26 27/27/27 9/9/9
f 9/9/9 27/27/27 28/28/28 11/11/11
f 11/11/11 28/28/28 29/29/29 13/13/13
f 13/13/13 29/29/29 30/30/30 15/15/15
f 15/15/15 30/30/30 31/31/31 17/17/17
f 17/17/17 31/31/31 32/32/32 19/19/19
f 19/19/19 32/32/32 33/33/33 21/21/21
f 23/23/23 34/34/34 35/35/35 24/24/24
f 24/24/24 35/35/35 36/36/36 25/25/25
f 25/25/25 36/36/36 37/37/37 26/26/26
f 26/26/26 37/37/37 38/38/38 27/27/27
f 27/27/27 38/38/38 39/39/39 28/28/28
f 28/28/28 39/39/39 40/40/40 29/29/29
f 29/29/29 40/40/40 41/41/41 30/30/30
f 30/30/30 41/41/41 42/42/42 31/31/31
f 31/31/31 42/42/42 43/43/43 32/32/32
f 32/32/32 43/43/43 44/44/44 33/33/33
f 45/45/45 46/46/46 1/1/1 4/4/4
f 47/47/47 45/45/45 4/4/4 6/6/6
f 48/48/48 47/47/47 6/6/6 8/8/8
f 49/49/49 48/48/48 8/8/8 10/10/10
f 50/50/50 49/49/49 10/10/10 12/12/12
f 51/51/51 50/50/50 12/12/12 14/14/14
f 52/52/52 51/51/51 14/14/14 16/16/16
f 53/53/53 52/52/52 16/16/16 18/18/18
f 54/54/54 53/53/53 18/18/18 20/20/20
f 55/55/55 54/54/54 20/20/20 22/22/22
f 56/56/56 57/57/57 46/46/46 45/45/45
f 58/58/58 56/56/56 45/45/45 47/47/47
f 59/59/59 58/58/58 47/47/47 48/48/48
f 60/60/60 59/59/59 48/48/48 49/49/49
f 61/61/61 60/60/60 49/49/49 50/50/50
f 62/62/62 61/61/61 50/50/50 51/51/51
f 63/63/63 62/62/62 51/51/51 52/52/52
f 64/64/64 63/63/63 52/52/52 53/53/53
f 65/65/65 64/64/64 53/53/53 54/54/54
f 66/66/66 65/65/65 54/54/54 55/55/55
# 50 faces

g
