# Max2Obj Version 4.0 Mar 10th, 2001
#
# object 11_-_Default to come ...
#
v  -1.777679 0.130463 0.734468
v  -1.323020 0.130463 1.543763
v  -0.795320 0.130463 1.887393
v  -0.267619 0.130463 2.042276
v  0.260082 0.130463 2.042276
v  0.787783 0.130463 1.887393
v  1.315483 0.130463 1.543763
v  1.770142 0.130463 0.734468
v  -1.777679 0.130463 -1.483718
v  -1.323020 0.130463 -1.483718
v  -0.795320 0.130463 -1.483718
v  -0.267619 0.130463 -1.483718
v  0.260082 0.130463 -1.483718
v  0.787783 0.130463 -1.483718
v  1.315483 0.130463 -1.483718
v  1.770142 0.130463 -1.483718
# 16 vertices

vt  0.000000 0.000000 0.000000
vt  0.142857 0.000000 0.000000
vt  0.285714 0.000000 0.000000
vt  0.428571 0.000000 0.000000
vt  0.571429 0.000000 0.000000
vt  0.714286 0.000000 0.000000
vt  0.857143 0.000000 0.000000
vt  1.000000 0.000000 0.000000
vt  0.000000 1.000000 0.000000
vt  0.142857 1.000000 0.000000
vt  0.285714 1.000000 0.000000
vt  0.428571 1.000000 0.000000
vt  0.571429 1.000000 0.000000
vt  0.714286 1.000000 0.000000
vt  0.857143 1.000000 0.000000
vt  1.000000 1.000000 0.000000
# 16 texture vertices

vn  0.000000 0.009142 -0.000000
vn  0.000000 0.009142 -0.000000
vn  0.000000 0.009142 -0.000000
vn  0.000000 0.009142 -0.000000
vn  0.000000 0.009142 -0.000000
vn  0.000000 0.009142 -0.000000
vn  0.000000 0.009142 -0.000000
vn  0.000000 0.009142 -0.000000
vn  0.000000 0.009142 -0.000000
vn  0.000000 0.009142 -0.000000
vn  0.000000 0.009142 -0.000000
vn  0.000000 0.009142 -0.000000
vn  0.000000 0.009142 -0.000000
vn  0.000000 0.009142 -0.000000
vn  0.000000 0.009142 -0.000000
vn  0.000000 0.009142 -0.000000
# 16 vertex normals

g 11_-_Default
s 1
f 10/10/10 9/9/9 1/1/1 2/2/2
f 11/11/11 10/10/10 2/2/2 3/3/3
f 12/12/12 11/11/11 3/3/3 4/4/4
f 13/13/13 12/12/12 4/4/4 5/5/5
f 14/14/14 13/13/13 5/5/5 6/6/6
f 15/15/15 14/14/14 6/6/6 7/7/7
f 16/16/16 15/15/15 7/7/7 8/8/8
# 7 faces

g
