# Max2Obj Version 4.0 Mar 10th, 2001
#
# object Material__80 to come ...
#
v  -0.342937 1.275076 0.194687
v  -0.311522 1.274884 0.249423
v  -0.271497 1.272673 0.288028
v  -0.222860 1.268442 0.310500
v  -0.165614 1.262192 0.316841
v  -0.299437 1.452257 0.189595
v  -0.277814 1.452776 0.237586
v  -0.247579 1.451276 0.269446
v  -0.208734 1.447757 0.285173
v  -0.161278 1.442219 0.284769
v  -0.257219 1.658929 0.182499
v  -0.245063 1.660136 0.223968
v  -0.224297 1.659325 0.249305
v  -0.194920 1.656493 0.258510
v  -0.156933 1.651643 0.251584
v  -0.221602 1.814731 0.166977
v  -0.216594 1.816458 0.203522
v  -0.202974 1.816165 0.223936
v  -0.180744 1.813853 0.228218
v  -0.149904 1.809522 0.216368
v  -0.197909 1.839301 0.136602
v  -0.195727 1.841233 0.171201
v  -0.184935 1.841146 0.189667
v  -0.165531 1.839039 0.192002
v  -0.137517 1.834913 0.178205
# 25 vertices

vt  0.000000 0.000000 0.000000
vt  0.250000 0.000000 0.000000
vt  0.500000 0.000000 0.000000
vt  0.750000 0.000000 0.000000
vt  1.000000 0.000000 0.000000
vt  0.000000 0.250000 0.000000
vt  0.250000 0.250000 0.000000
vt  0.500000 0.250000 0.000000
vt  0.750000 0.250000 0.000000
vt  1.000000 0.250000 0.000000
vt  0.000000 0.500000 0.000000
vt  0.250000 0.500000 0.000000
vt  0.500000 0.500000 0.000000
vt  0.750000 0.500000 0.000000
vt  1.000000 0.500000 0.000000
vt  0.000000 0.750000 0.000000
vt  0.250000 0.750000 0.000000
vt  0.500000 0.750000 0.000000
vt  0.750000 0.750000 0.000000
vt  1.000000 0.750000 0.000000
vt  0.000000 1.000000 0.000000
vt  0.250000 1.000000 0.000000
vt  0.500000 1.000000 0.000000
vt  0.750000 1.000000 0.000000
vt  1.000000 1.000000 0.000000
# 25 texture vertices

vn  -0.006714 0.000971 0.003209
vn  -0.005541 0.000802 0.005041
vn  -0.003092 0.000645 0.007132
vn  -0.000368 0.000602 0.008124
vn  0.000194 0.000660 0.008186
vn  -0.007102 0.000925 0.002373
vn  -0.006124 0.000819 0.004266
vn  -0.003493 0.000634 0.006890
vn  -0.000326 0.000538 0.008141
vn  0.000768 0.000568 0.008232
vn  -0.007491 0.000994 0.001072
vn  -0.006632 0.000897 0.003400
vn  -0.003402 0.000740 0.006927
vn  0.000597 0.000592 0.008224
vn  0.001873 0.000558 0.008163
vn  -0.006928 0.002732 -0.000267
vn  -0.006457 0.002682 0.001981
vn  -0.002922 0.002876 0.006089
vn  0.001717 0.002271 0.007520
vn  0.003169 0.001606 0.007514
vn  -0.006336 0.003475 -0.000760
vn  -0.005839 0.003822 0.000534
vn  -0.002835 0.004456 0.004034
vn  0.001722 0.003811 0.006091
vn  0.003673 0.003193 0.006061
# 25 vertex normals

g Material__80
s 1
f 7/7/7 6/6/6 1/1/1 2/2/2
f 8/8/8 7/7/7 2/2/2 3/3/3
f 9/9/9 8/8/8 3/3/3 4/4/4
f 10/10/10 9/9/9 4/4/4 5/5/5
f 12/12/12 11/11/11 6/6/6 7/7/7
f 13/13/13 12/12/12 7/7/7 8/8/8
f 14/14/14 13/13/13 8/8/8 9/9/9
f 15/15/15 14/14/14 9/9/9 10/10/10
f 17/17/17 16/16/16 11/11/11 12/12/12
f 18/18/18 17/17/17 12/12/12 13/13/13
f 19/19/19 18/18/18 13/13/13 14/14/14
f 20/20/20 19/19/19 14/14/14 15/15/15
f 22/22/22 21/21/21 16/16/16 17/17/17
f 23/23/23 22/22/22 17/17/17 18/18/18
f 24/24/24 23/23/23 18/18/18 19/19/19
f 25/25/25 24/24/24 19/19/19 20/20/20
# 16 faces

g
