# Max2Obj Version 4.0 Mar 10th, 2001
#
# object Material__80 to come ...
#
v  0.009414 1.960284 0.203041
v  0.075576 1.960109 0.196328
v  0.129467 1.958098 0.177872
v  0.171087 1.954250 0.147673
v  0.200436 1.948566 0.105732
v  0.022037 2.121428 0.168019
v  0.077651 2.121901 0.166679
v  0.120995 2.120537 0.153596
v  0.152067 2.117336 0.128771
v  0.170869 2.112299 0.092203
v  0.032186 2.309396 0.133344
v  0.077600 2.310494 0.137200
v  0.110744 2.309755 0.129313
v  0.131617 2.307180 0.109683
v  0.140219 2.302769 0.078311
v  0.031434 2.451097 0.101058
v  0.069150 2.452667 0.108836
v  0.094594 2.452401 0.104871
v  0.107768 2.450298 0.089163
v  0.108671 2.446359 0.061713
v  0.011356 2.473443 0.073204
v  0.046026 2.475200 0.082533
v  0.068426 2.475120 0.080119
v  0.078555 2.473204 0.065963
v  0.076413 2.469452 0.040063
# 25 vertices

vt  0.000000 0.000000 0.000000
vt  0.250000 0.000000 0.000000
vt  0.500000 0.000000 0.000000
vt  0.750000 0.000000 0.000000
vt  1.000000 0.000000 0.000000
vt  0.000000 0.250000 0.000000
vt  0.250000 0.250000 0.000000
vt  0.500000 0.250000 0.000000
vt  0.750000 0.250000 0.000000
vt  1.000000 0.250000 0.000000
vt  0.000000 0.500000 0.000000
vt  0.250000 0.500000 0.000000
vt  0.500000 0.500000 0.000000
vt  0.750000 0.500000 0.000000
vt  1.000000 0.500000 0.000000
vt  0.000000 0.750000 0.000000
vt  0.250000 0.750000 0.000000
vt  0.500000 0.750000 0.000000
vt  0.750000 0.750000 0.000000
vt  1.000000 0.750000 0.000000
vt  0.000000 1.000000 0.000000
vt  0.250000 1.000000 0.000000
vt  0.500000 1.000000 0.000000
vt  0.750000 1.000000 0.000000
vt  1.000000 1.000000 0.000000
# 25 texture vertices

vn  0.000418 0.000883 0.006176
vn  0.002681 0.000729 0.005858
vn  0.005714 0.000587 0.004643
vn  0.007785 0.000547 0.002867
vn  0.008073 0.000601 0.002455
vn  -0.000556 0.000841 0.006208
vn  0.001689 0.000745 0.006059
vn  0.005315 0.000577 0.004874
vn  0.007818 0.000489 0.002839
vn  0.008350 0.000517 0.002029
vn  -0.001983 0.000904 0.006093
vn  0.000638 0.000816 0.006174
vn  0.005388 0.000673 0.004816
vn  0.008273 0.000538 0.002157
vn  0.008729 0.000507 0.001158
vn  -0.003064 0.002485 0.005234
vn  -0.000678 0.002439 0.005588
vn  0.004764 0.002615 0.004181
vn  0.008038 0.002065 0.001073
vn  0.008620 0.001461 -0.000043
vn  -0.003305 0.003160 0.004624
vn  -0.001841 0.003476 0.004653
vn  0.002793 0.004053 0.003460
vn  0.006645 0.003467 0.000616
vn  0.007405 0.002904 -0.000892
# 25 vertex normals

g Material__80
s 1
f 7/7/7 6/6/6 1/1/1 2/2/2
f 8/8/8 7/7/7 2/2/2 3/3/3
f 9/9/9 8/8/8 3/3/3 4/4/4
f 10/10/10 9/9/9 4/4/4 5/5/5
f 12/12/12 11/11/11 6/6/6 7/7/7
f 13/13/13 12/12/12 7/7/7 8/8/8
f 14/14/14 13/13/13 8/8/8 9/9/9
f 15/15/15 14/14/14 9/9/9 10/10/10
f 17/17/17 16/16/16 11/11/11 12/12/12
f 18/18/18 17/17/17 12/12/12 13/13/13
f 19/19/19 18/18/18 13/13/13 14/14/14
f 20/20/20 19/19/19 14/14/14 15/15/15
f 22/22/22 21/21/21 16/16/16 17/17/17
f 23/23/23 22/22/22 17/17/17 18/18/18
f 24/24/24 23/23/23 18/18/18 19/19/19
f 25/25/25 24/24/24 19/19/19 20/20/20
# 16 faces

g
