# Max2Obj Version 4.0 Mar 10th, 2001
#
# object Material__81 to come ...
#
v  -4.000500 0.033835 -1.437121
v  -4.000500 2.041886 -1.437121
v  -1.992449 0.033835 -1.437121
v  0.015603 0.033835 -1.437121
v  -1.992449 2.041886 -1.437121
v  0.015603 2.041886 -1.437121
v  2.023655 0.033835 -1.437121
v  4.031706 0.033835 -1.437121
v  2.023655 2.041886 -1.437121
v  4.031706 2.041886 -1.437121
# 10 vertices

vt  0.000000 0.000000 0.000000
vt  1.000000 0.000000 0.000000
vt  0.000000 1.000000 0.000000
vt  1.000000 1.000000 0.000000
vt  0.000000 0.000000 0.000000
vt  1.000000 0.000000 0.000000
vt  0.000000 1.000000 0.000000
vt  1.000000 1.000000 0.000000
vt  0.000000 0.000000 0.000000
vt  1.000000 0.000000 0.000000
vt  0.000000 1.000000 0.000000
vt  1.000000 1.000000 0.000000
vt  0.000000 0.000000 0.000000
vt  1.000000 0.000000 0.000000
vt  0.000000 1.000000 0.000000
vt  1.000000 1.000000 0.000000
# 16 texture vertices

vn  0.000000 -0.000000 1.000000
vn  0.000000 -0.000000 1.000000
vn  0.000000 -0.000000 1.000000
vn  0.000000 -0.000000 1.000000
vn  0.000000 -0.000000 1.000000
vn  0.000000 -0.000000 1.000000
vn  0.000000 -0.000000 1.000000
vn  0.000000 -0.000000 1.000000
vn  0.000000 -0.000000 1.000000
vn  0.000000 -0.000000 1.000000
# 10 vertex normals

g Material__81
s 1
f 5/4/5 2/3/2 1/1/1 3/2/3
f 6/8/6 5/7/5 3/5/3 4/6/4
f 9/12/9 6/11/6 4/9/4 7/10/7
f 10/16/10 9/15/9 7/13/7 8/14/8
# 4 faces

g
